<?xml version="1.0" encoding="UTF-8"?>
<!DOCTYPE svg  PUBLIC '-//W3C//DTD SVG 1.1//EN'  'http://www.w3.org/Graphics/SVG/1.1/DTD/svg11.dtd'>
<svg enable-background="new 0 0 410.97 48.74" version="1.1" viewBox="0 0 410.97 48.74" xml:space="preserve" xmlns="http://www.w3.org/2000/svg">
	<path d="m5.57 15.15v9.2h-5.57v-24h8.36c2.78 0 4.99 0.64 6.61 1.93 1.63 1.29 2.44 3.05 2.44 5.28 0 1.24-0.33 2.31-0.98 3.2s-1.62 1.62-2.89 2.18c1.47 0.42 2.53 1.11 3.18 2.09 0.64 0.97 0.96 2.18 0.96 3.63v1.52c0 0.63 0.09 1.34 0.28 2.14s0.51 1.38 0.97 1.72v0.33h-5.75c-0.44-0.34-0.73-0.94-0.86-1.8s-0.2-1.67-0.2-2.42v-1.45c0-1.14-0.3-2.02-0.91-2.62-0.6-0.6-1.49-0.91-2.65-0.91h-2.99zm0-4.28h2.82c1.12 0 1.98-0.26 2.57-0.77s0.89-1.24 0.89-2.2c0-0.98-0.3-1.77-0.91-2.37s-1.47-0.9-2.58-0.9h-2.79v6.24z" fill="#256A9F"/>
	<polygon points="36.41 14.08 27.95 14.08 27.95 20.07 38.09 20.07 38.09 24.35 22.38 24.35 22.38 0.35 38.11 0.35 38.11 4.63 27.95 4.63 27.95 9.8 36.41 9.8" fill="#256A9F"/>
	<path d="m54.45 17.99c0-0.86-0.28-1.51-0.84-1.97s-1.58-0.94-3.05-1.46c-2.98-0.96-5.19-2-6.64-3.09s-2.17-2.67-2.17-4.73c0-2.01 0.84-3.64 2.52-4.88 1.69-1.24 3.83-1.86 6.43-1.86 2.74 0 4.94 0.64 6.61 1.92s2.48 3.09 2.42 5.42l-0.03 0.1h-5.41c0-1.13-0.31-1.95-0.92-2.47-0.62-0.51-1.54-0.77-2.79-0.77-1.01 0-1.81 0.25-2.39 0.74-0.58 0.5-0.87 1.11-0.87 1.83 0 0.7 0.3 1.27 0.9 1.69s1.72 0.96 3.36 1.59c2.78 0.83 4.89 1.83 6.32 3.02s2.14 2.81 2.14 4.88c0 2.11-0.82 3.76-2.47 4.96s-3.84 1.79-6.56 1.79-5.02-0.64-6.9-1.92c-1.89-1.28-2.8-3.29-2.75-6.04l0.03-0.1h5.43c0 1.4 0.34 2.39 1.03 2.98s1.74 0.88 3.16 0.88c1.16 0 2.03-0.23 2.6-0.69s0.84-1.07 0.84-1.82" fill="#256A9F"/>
	<polygon points="77.94 14.08 69.48 14.08 69.48 20.07 79.62 20.07 79.62 24.35 63.91 24.35 63.91 0.35 79.64 0.35 79.64 4.63 69.48 4.63 69.48 9.8 77.94 9.8" fill="#256A9F"/>
	<path d="m96.16 19.69h-7.14l-1.38 4.67h-5.87l7.83-24.01h2.98v0.02l0.02-0.02h2.99l7.85 24.01h-5.87l-1.41-4.67zm-5.85-4.29h4.57l-2.24-7.45h-0.1l-2.23 7.45z" fill="#256A9F"/>
	<path d="m111.57 15.15v9.2h-5.57v-24h8.36c2.78 0 4.99 0.64 6.61 1.93 1.63 1.29 2.44 3.05 2.44 5.28 0 1.24-0.33 2.31-0.98 3.2s-1.62 1.62-2.89 2.18c1.47 0.42 2.53 1.11 3.17 2.09 0.64 0.97 0.96 2.18 0.96 3.63v1.52c0 0.63 0.09 1.34 0.28 2.14s0.51 1.38 0.97 1.72v0.33h-5.75c-0.44-0.34-0.73-0.94-0.86-1.8s-0.2-1.67-0.2-2.42v-1.45c0-1.14-0.3-2.02-0.91-2.62s-1.49-0.91-2.66-0.91h-2.97zm0-4.28h2.82c1.12 0 1.98-0.26 2.57-0.77s0.89-1.24 0.89-2.2c0-0.98-0.3-1.77-0.92-2.37-0.61-0.6-1.47-0.9-2.58-0.9h-2.79v6.24z" fill="#256A9F"/>
	<path d="m146.81 16.26l0.03 0.1c0.04 2.74-0.73 4.81-2.32 6.22s-3.84 2.12-6.75 2.12c-2.97 0-5.35-0.91-7.15-2.72s-2.7-4.19-2.7-7.12v-5.02c0-2.92 0.87-5.29 2.6-7.11s4.02-2.73 6.87-2.73c3.04 0 5.4 0.71 7.07 2.13 1.66 1.42 2.48 3.48 2.43 6.18l-0.05 0.1h-5.42c0-1.47-0.31-2.53-0.94-3.17s-1.65-0.96-3.08-0.96c-1.25 0-2.21 0.5-2.88 1.51s-1.01 2.35-1.01 4.02v5.05c0 1.68 0.37 3.03 1.11 4.04s1.79 1.52 3.17 1.52c1.27 0 2.2-0.32 2.76-0.96 0.57-0.64 0.85-1.7 0.85-3.2h5.41z" fill="#256A9F"/>
	<polygon points="170.79 24.36 165.23 24.36 165.23 14.69 156.34 14.69 156.34 24.36 150.77 24.36 150.77 0.35 156.34 0.35 156.34 10.41 165.23 10.41 165.23 0.35 170.79 0.35" fill="#256A9F"/>
	<path d="m193.9 19.69h-7.14l-1.38 4.67h-5.87l7.83-24.01h2.98v0.02l0.02-0.02h2.98l7.85 24.01h-5.87l-1.4-4.67zm-5.86-4.29h4.57l-2.24-7.45h-0.1l-2.23 7.45z" fill="#F1B943"/>
	<polygon points="223.58 24.36 218.02 24.36 209.23 9.25 209.13 9.29 209.13 24.36 203.56 24.36 203.56 0.35 209.13 0.35 217.92 15.43 218.02 15.4 218.02 0.35 223.58 0.35" fill="#F1B943"/>
	<path d="m227.57 24.36v-24.01h8.79c2.82 0 5.19 0.92 7.09 2.76s2.86 4.2 2.86 7.08v4.32c0 2.89-0.95 5.25-2.86 7.09-1.9 1.84-4.26 2.75-7.09 2.75h-8.79zm5.57-19.72v15.43h3.22c1.26 0 2.3-0.52 3.12-1.55s1.23-2.37 1.23-4.01v-4.35c0-1.62-0.41-2.94-1.23-3.97s-1.86-1.55-3.12-1.55h-3.22z" fill="#F1B943"/>
	<polygon points="267.75 17.15 267.85 17.15 273.28 0.35 280.65 0.35 280.65 24.36 275.07 24.36 275.07 8.89 274.97 8.87 269.68 24.36 265.94 24.36 260.74 9.1 260.64 9.12 260.64 24.36 255.07 24.36 255.07 0.35 262.38 0.35" fill="#256A9F"/>
	<path d="m298.35 19.69h-7.14l-1.38 4.67h-5.87l7.83-24.01h2.98v0.02l0.02-0.02h2.98l7.85 24.01h-5.87l-1.4-4.67zm-5.86-4.29h4.57l-2.24-7.45h-0.1l-2.23 7.45z" fill="#256A9F"/>
	<path d="m313.92 15.15v9.2h-5.57v-24h8.36c2.78 0 4.98 0.64 6.61 1.93s2.44 3.05 2.44 5.28c0 1.24-0.33 2.31-0.98 3.2s-1.62 1.62-2.89 2.18c1.47 0.42 2.53 1.11 3.17 2.09 0.64 0.97 0.96 2.18 0.96 3.63v1.52c0 0.63 0.09 1.34 0.28 2.14s0.51 1.38 0.97 1.72v0.33h-5.75c-0.44-0.34-0.73-0.94-0.86-1.8s-0.2-1.67-0.2-2.42v-1.45c0-1.14-0.3-2.02-0.91-2.62-0.6-0.6-1.49-0.91-2.65-0.91h-2.98zm0-4.28h2.82c1.12 0 1.98-0.26 2.57-0.77s0.89-1.24 0.89-2.2c0-0.98-0.31-1.77-0.92-2.37s-1.47-0.9-2.58-0.9h-2.79v6.24z" fill="#256A9F"/>
	<polygon points="338.02 14.73 336.47 14.73 336.47 24.36 330.89 24.36 330.89 0.35 336.47 0.35 336.47 9.75 337.62 9.75 343.05 0.35 350.05 0.35 342.5 11.26 350.7 24.36 343.54 24.36" fill="#256A9F"/>
	<polygon points="367.47 14.08 359.02 14.08 359.02 20.07 369.16 20.07 369.16 24.35 353.44 24.35 353.44 0.35 369.17 0.35 369.17 4.63 359.02 4.63 359.02 9.8 367.47 9.8" fill="#256A9F"/>
	<polygon points="390.01 4.63 383.66 4.63 383.66 24.36 378.08 24.36 378.08 4.63 371.85 4.63 371.85 0.35 390.01 0.35" fill="#256A9F"/>
	<path d="m405.4 17.99c0-0.86-0.28-1.51-0.84-1.97s-1.58-0.94-3.05-1.46c-2.98-0.96-5.19-2-6.64-3.09s-2.17-2.67-2.17-4.73c0-2.01 0.84-3.64 2.52-4.88s3.82-1.87 6.41-1.87c2.74 0 4.94 0.64 6.61 1.92s2.48 3.09 2.42 5.42l-0.03 0.1h-5.41c0-1.13-0.31-1.95-0.92-2.47-0.62-0.51-1.54-0.77-2.79-0.77-1.01 0-1.81 0.25-2.39 0.74-0.58 0.5-0.87 1.11-0.87 1.83 0 0.7 0.3 1.27 0.9 1.69s1.72 0.96 3.35 1.59c2.78 0.83 4.89 1.83 6.32 3.02s2.14 2.81 2.14 4.88c0 2.11-0.82 3.76-2.47 4.96-1.65 1.19-3.84 1.79-6.56 1.79-2.71 0-5.02-0.64-6.9-1.92s-2.8-3.29-2.75-6.04l0.03-0.1h5.43c0 1.4 0.34 2.39 1.03 2.98s1.74 0.88 3.16 0.88c1.17 0 2.03-0.23 2.61-0.69s0.86-1.06 0.86-1.81" fill="#256A9F"/>
	<polygon points="0 38.86 3.24 38.86 3.24 48.58 6.08 48.58 6.08 38.86 9.37 38.86 9.37 36.54 0 36.54" fill="#256A9F"/>
	<polygon points="17.8 41.48 13.66 41.48 13.66 36.54 10.82 36.54 10.82 48.58 13.66 48.58 13.66 43.8 17.8 43.8 17.8 48.58 20.65 48.58 20.65 36.54 17.8 36.54" fill="#256A9F"/>
	<polygon points="25.79 43.52 30.06 43.52 30.06 41.21 25.79 41.21 25.79 38.86 30.85 38.86 30.85 36.54 22.95 36.54 22.95 48.58 30.86 48.58 30.86 46.27 25.79 46.27" fill="#256A9F"/>
	<polygon points="46.75 43.52 44.89 36.54 42.61 36.54 40.76 43.51 39.39 36.54 36.45 36.54 39.26 48.58 41.82 48.58 43.75 41.65 45.68 48.58 48.24 48.58 51.05 36.54 48.11 36.54" fill="#256A9F"/>
	<path d="m57.14 36.38c-1.49 0-2.71 0.49-3.64 1.47-0.93 0.97-1.4 2.21-1.4 3.68v2.07c0 1.48 0.47 2.71 1.4 3.68s2.16 1.46 3.65 1.46c1.5 0 2.73-0.49 3.67-1.46 0.93-0.96 1.41-2.21 1.41-3.69v-2.07c0-1.47-0.48-2.71-1.42-3.68s-2.18-1.46-3.67-1.46m2.25 7.21c0 0.85-0.21 1.54-0.61 2.06-0.39 0.51-0.93 0.75-1.63 0.75s-1.23-0.25-1.62-0.75c-0.4-0.52-0.6-1.22-0.6-2.06v-2.08c0-0.83 0.2-1.52 0.6-2.04 0.38-0.51 0.91-0.75 1.6-0.75 0.71 0 1.25 0.25 1.64 0.76 0.41 0.52 0.62 1.21 0.62 2.04v2.07z" fill="#256A9F"/>
	<path d="m73.14 47.3c-0.08-0.33-0.12-0.64-0.12-0.94v-0.85c0-0.74-0.16-1.37-0.49-1.88-0.24-0.38-0.59-0.68-1.04-0.9 0.38-0.23 0.7-0.52 0.93-0.84 0.35-0.47 0.52-1.04 0.52-1.68 0-1.15-0.41-2.06-1.21-2.71-0.79-0.63-1.88-0.96-3.24-0.96h-4.25v12.03h2.84v-4.59h1.56c0.5 0 0.88 0.13 1.14 0.4s0.39 0.64 0.39 1.15v0.81c0 0.37 0.03 0.77 0.09 1.17 0.07 0.46 0.24 0.8 0.5 1.01l0.07 0.06h2.74v-0.56l-0.1-0.08c-0.14-0.14-0.26-0.35-0.33-0.64m-3.42-5.98c-0.26 0.23-0.69 0.35-1.27 0.35h-1.36v-2.81h1.4c0.54 0 0.95 0.13 1.21 0.39 0.27 0.26 0.4 0.61 0.4 1.06 0 0.46-0.13 0.79-0.38 1.01" fill="#256A9F"/>
	<polygon points="78.12 36.54 75.27 36.54 75.27 48.58 83.26 48.58 83.26 46.27 78.12 46.27" fill="#256A9F"/>
	<path d="m89.26 36.54h-4.28v12.03h4.28c1.47 0 2.7-0.48 3.66-1.41 0.96-0.94 1.45-2.17 1.45-3.65v-1.9c0-1.48-0.49-2.7-1.45-3.65-0.95-0.94-2.19-1.42-3.66-1.42m2.26 6.97c0 0.81-0.21 1.49-0.63 2-0.41 0.51-0.94 0.75-1.62 0.75h-1.44v-7.41h1.44c0.68 0 1.21 0.24 1.62 0.75 0.42 0.51 0.63 1.18 0.63 1.99v1.92z" fill="#256A9F"/>
	<polygon points="96.6 41.38 98.2 41.38 99.07 38.95 99.08 36.54 96.6 36.54" fill="#256A9F"/>
	<path d="m106.3 41.35c-0.8-0.27-1.36-0.52-1.67-0.75-0.27-0.2-0.4-0.44-0.4-0.74 0-0.35 0.12-0.63 0.38-0.85 0.26-0.23 0.64-0.34 1.14-0.34 0.55 0 0.99 0.13 1.28 0.39s0.43 0.63 0.43 1.12v0.27h2.5l0.21-0.05 0.06-0.18 0.01-0.08c0.03-1.12-0.38-2.04-1.22-2.74-0.82-0.68-1.91-1.03-3.25-1.03-1.26 0-2.31 0.32-3.13 0.95-0.84 0.65-1.27 1.5-1.27 2.52s0.38 1.84 1.13 2.43c0.71 0.56 1.76 1.05 3.11 1.46 0.73 0.22 1.25 0.46 1.52 0.7 0.25 0.22 0.37 0.5 0.37 0.86 0 0.35-0.13 0.62-0.38 0.82-0.27 0.22-0.69 0.33-1.24 0.33-0.62 0-1.11-0.14-1.46-0.42-0.34-0.27-0.5-0.69-0.5-1.29v-0.27h-2.5l-0.21 0.05-0.06 0.18-0.01 0.08c-0.03 1.31 0.44 2.31 1.41 2.98 0.93 0.65 2.05 0.97 3.34 0.97 1.32 0 2.39-0.3 3.21-0.9 0.84-0.62 1.26-1.48 1.26-2.55 0-1.02-0.37-1.85-1.09-2.48-0.68-0.58-1.69-1.07-2.97-1.44" fill="#256A9F"/>
	<polygon points="119.85 36.54 117 36.54 117 48.58 125 48.58 125 46.27 119.85 46.27" fill="#256A9F"/>
	<path d="m129.9 36.54l-4.06 12.03h2.98l0.77-2.48h3.33l0.78 2.48h2.98l-4.04-12.03h-2.74zm0.44 7.21l0.93-2.96 0.93 2.96h-1.86z" fill="#256A9F"/>
	<path d="m146.78 47.3c-0.08-0.33-0.12-0.64-0.12-0.94v-0.85c0-0.74-0.16-1.37-0.49-1.88-0.24-0.38-0.59-0.68-1.04-0.9 0.38-0.23 0.7-0.52 0.93-0.84 0.35-0.47 0.52-1.04 0.52-1.68 0-1.15-0.41-2.06-1.21-2.71-0.79-0.63-1.88-0.96-3.25-0.96h-4.25v12.03h2.84v-4.59h1.56c0.5 0 0.88 0.13 1.14 0.4s0.39 0.64 0.39 1.15v0.81c0 0.37 0.03 0.77 0.09 1.17 0.07 0.46 0.24 0.8 0.5 1.01l0.07 0.06h2.74v-0.56l-0.1-0.08c-0.13-0.14-0.25-0.35-0.32-0.64m-3.42-5.98c-0.27 0.23-0.69 0.35-1.27 0.35h-1.36v-2.81h1.4c0.54 0 0.95 0.13 1.21 0.39 0.27 0.26 0.4 0.61 0.4 1.06 0 0.46-0.13 0.79-0.38 1.01" fill="#256A9F"/>
	<path d="m153.2 44.16h2.21v1.84c-0.14 0.11-0.33 0.21-0.56 0.29-0.29 0.1-0.69 0.15-1.21 0.15-0.66 0-1.17-0.24-1.57-0.72-0.4-0.49-0.6-1.15-0.6-1.95v-2.42c0-0.79 0.2-1.44 0.59-1.94 0.38-0.48 0.87-0.72 1.49-0.72 0.6 0 1.05 0.15 1.35 0.44s0.45 0.69 0.45 1.23v0.27h2.44l0.21-0.05 0.06-0.19 0.01-0.08c0.03-1.19-0.37-2.15-1.17-2.87-0.8-0.71-1.94-1.07-3.41-1.07-1.42 0-2.59 0.47-3.5 1.4-0.9 0.92-1.36 2.13-1.36 3.59v2.4c0 1.46 0.47 2.67 1.41 3.59 0.93 0.92 2.14 1.39 3.6 1.39 1.16 0 2.12-0.18 2.87-0.54s1.32-0.8 1.7-1.3l0.05-0.07v-4.8h-5.06v2.13z" fill="#256A9F"/>
	<polygon points="163.25 43.52 167.51 43.52 167.51 41.21 163.25 41.21 163.25 38.86 168.3 38.86 168.3 36.54 160.4 36.54 160.4 48.58 168.32 48.58 168.32 46.27 163.25 46.27" fill="#256A9F"/>
	<path d="m174.89 41.35c-0.8-0.27-1.36-0.52-1.67-0.75-0.27-0.2-0.4-0.44-0.4-0.74 0-0.35 0.12-0.63 0.38-0.85 0.26-0.23 0.64-0.34 1.14-0.34 0.56 0 0.99 0.13 1.28 0.39s0.43 0.63 0.43 1.12v0.27h2.5l0.21-0.05 0.06-0.18 0.01-0.08c0.03-1.12-0.38-2.04-1.22-2.74-0.82-0.68-1.91-1.03-3.25-1.03-1.25 0-2.31 0.32-3.13 0.95-0.84 0.65-1.27 1.5-1.27 2.52s0.38 1.84 1.14 2.43c0.71 0.56 1.75 1.05 3.11 1.46 0.73 0.22 1.25 0.46 1.52 0.7 0.25 0.22 0.37 0.5 0.37 0.86 0 0.35-0.13 0.62-0.38 0.82-0.27 0.22-0.69 0.33-1.24 0.33-0.62 0-1.11-0.14-1.46-0.42-0.34-0.27-0.5-0.69-0.5-1.29v-0.27h-2.5l-0.21 0.05-0.06 0.18-0.01 0.08c-0.03 1.31 0.44 2.31 1.41 2.98 0.93 0.65 2.05 0.97 3.34 0.97 1.32 0 2.4-0.3 3.21-0.9 0.84-0.62 1.26-1.48 1.26-2.55 0-1.02-0.37-1.85-1.09-2.48-0.69-0.58-1.7-1.07-2.98-1.44" fill="#256A9F"/>
	<polygon points="180.03 38.86 183.27 38.86 183.27 48.58 186.11 48.58 186.11 38.86 189.4 38.86 189.4 36.54 180.03 36.54" fill="#256A9F"/>
	<polygon points="201.84 44.53 199.09 36.54 195.6 36.54 195.6 48.58 198.44 48.58 198.44 41.84 200.88 48.58 202.82 48.58 205.25 41.86 205.25 48.58 208.09 48.58 208.09 36.54 204.62 36.54" fill="#256A9F"/>
	<path d="m213.57 36.54l-4.05 12.03h2.98l0.78-2.48h3.33l0.78 2.48h2.98l-4.04-12.03h-2.76zm0.44 7.21l0.93-2.96 0.93 2.96h-1.86z" fill="#256A9F"/>
	<path d="m230.45 47.3c-0.08-0.33-0.12-0.64-0.12-0.94v-0.85c0-0.74-0.16-1.37-0.48-1.88-0.24-0.38-0.59-0.68-1.04-0.9 0.38-0.23 0.7-0.52 0.93-0.84 0.34-0.47 0.52-1.04 0.52-1.68 0-1.15-0.41-2.06-1.21-2.71-0.79-0.63-1.88-0.96-3.24-0.96h-4.25v12.03h2.84v-4.59h1.56c0.5 0 0.88 0.13 1.14 0.4 0.27 0.27 0.39 0.64 0.39 1.15v0.81c0 0.37 0.03 0.77 0.09 1.17 0.07 0.46 0.24 0.8 0.51 1.01l0.07 0.06h2.74v-0.56l-0.1-0.08c-0.16-0.14-0.28-0.35-0.35-0.64m-3.42-5.98c-0.26 0.23-0.69 0.35-1.27 0.35h-1.37v-2.81h1.4c0.54 0 0.95 0.13 1.21 0.39 0.27 0.26 0.4 0.61 0.4 1.06 0.01 0.46-0.11 0.79-0.37 1.01" fill="#256A9F"/>
	<polygon points="242.34 36.54 238.81 36.54 235.66 41.24 235.43 41.24 235.43 36.54 232.58 36.54 232.58 48.58 235.43 48.58 235.43 43.78 235.86 43.78 239.03 48.58 242.63 48.58 238.16 42.16" fill="#256A9F"/>
	<polygon points="246.46 43.52 250.72 43.52 250.72 41.21 246.46 41.21 246.46 38.86 251.51 38.86 251.51 36.54 243.61 36.54 243.61 48.58 251.52 48.58 251.52 46.27 246.46 46.27" fill="#256A9F"/>
	<polygon points="252.52 38.86 255.75 38.86 255.75 48.58 258.6 48.58 258.6 38.86 261.88 38.86 261.88 36.54 252.52 36.54" fill="#256A9F"/>
	<path d="m276.98 47.3c-0.08-0.33-0.12-0.65-0.12-0.94v-0.85c0-0.74-0.16-1.37-0.49-1.88-0.24-0.38-0.59-0.68-1.04-0.9 0.38-0.23 0.7-0.52 0.93-0.84 0.35-0.47 0.52-1.04 0.52-1.68 0-1.15-0.41-2.06-1.21-2.71-0.79-0.63-1.88-0.96-3.24-0.96h-4.25v12.03h2.84v-4.59h1.56c0.5 0 0.88 0.13 1.14 0.4s0.39 0.64 0.39 1.15v0.81c0 0.38 0.03 0.77 0.09 1.17 0.07 0.46 0.24 0.8 0.5 1.01l0.07 0.06h2.74v-0.56l-0.1-0.08c-0.14-0.14-0.26-0.35-0.33-0.64m-3.42-5.98c-0.27 0.23-0.69 0.35-1.27 0.35h-1.37v-2.81h1.4c0.54 0 0.95 0.13 1.21 0.39 0.27 0.26 0.4 0.61 0.4 1.06 0.01 0.46-0.11 0.79-0.37 1.01" fill="#256A9F"/>
	<polygon points="281.96 43.52 286.22 43.52 286.22 41.21 281.96 41.21 281.96 38.86 287.01 38.86 287.01 36.54 279.11 36.54 279.11 48.58 287.03 48.58 287.03 46.27 281.96 46.27" fill="#256A9F"/>
	<path d="m293.6 41.35c-0.79-0.27-1.36-0.52-1.67-0.75-0.27-0.2-0.4-0.44-0.4-0.74 0-0.35 0.12-0.63 0.37-0.85 0.26-0.23 0.64-0.34 1.14-0.34 0.55 0 0.99 0.13 1.28 0.39s0.43 0.63 0.43 1.12v0.27h2.5l0.21-0.05 0.06-0.18 0.01-0.08c0.03-1.12-0.38-2.04-1.22-2.74-0.82-0.68-1.92-1.03-3.25-1.03-1.26 0-2.31 0.32-3.13 0.95-0.84 0.65-1.27 1.5-1.27 2.52s0.38 1.84 1.13 2.43c0.71 0.56 1.75 1.05 3.11 1.46 0.73 0.22 1.24 0.46 1.53 0.7 0.25 0.22 0.37 0.5 0.37 0.86 0 0.35-0.13 0.62-0.38 0.82-0.27 0.22-0.69 0.33-1.24 0.33-0.62 0-1.11-0.14-1.46-0.42-0.34-0.27-0.5-0.69-0.5-1.29v-0.27h-2.5l-0.21 0.05-0.06 0.18-0.01 0.08c-0.03 1.31 0.44 2.31 1.41 2.98 0.93 0.65 2.05 0.97 3.34 0.97 1.32 0 2.4-0.3 3.21-0.9 0.84-0.62 1.26-1.48 1.26-2.55 0-1.02-0.37-1.86-1.09-2.48-0.68-0.58-1.69-1.07-2.97-1.44" fill="#256A9F"/>
	<polygon points="302.4 43.52 306.66 43.52 306.66 41.21 302.4 41.21 302.4 38.86 307.45 38.86 307.45 36.54 299.55 36.54 299.55 48.58 307.47 48.58 307.47 46.27 302.4 46.27" fill="#256A9F"/>
	<path d="m312.31 36.54l-4.06 12.03h2.98l0.77-2.48h3.33l0.78 2.48h2.98l-4.04-12.03h-2.74zm0.43 7.21l0.94-2.96 0.93 2.96h-1.87z" fill="#256A9F"/>
	<path d="m329.18 47.3c-0.08-0.33-0.12-0.65-0.12-0.94v-0.85c0-0.74-0.16-1.37-0.49-1.88-0.24-0.38-0.59-0.68-1.04-0.9 0.38-0.23 0.7-0.52 0.93-0.84 0.35-0.47 0.52-1.04 0.52-1.68 0-1.15-0.41-2.06-1.21-2.71-0.79-0.63-1.88-0.96-3.25-0.96h-4.25v12.03h2.84v-4.59h1.56c0.5 0 0.88 0.13 1.14 0.4s0.39 0.64 0.39 1.15v0.81c0 0.38 0.03 0.77 0.09 1.17 0.07 0.46 0.24 0.8 0.51 1.01l0.07 0.06h2.74v-0.56l-0.1-0.08c-0.13-0.14-0.25-0.35-0.33-0.64m-3.41-5.98c-0.27 0.23-0.69 0.35-1.27 0.35h-1.36v-2.81h1.4c0.54 0 0.95 0.13 1.21 0.39 0.27 0.26 0.4 0.61 0.4 1.06 0 0.46-0.13 0.79-0.38 1.01" fill="#256A9F"/>
	<path d="m335.8 36.38c-1.41 0-2.58 0.48-3.45 1.43-0.87 0.94-1.31 2.16-1.31 3.62v2.28c0 1.47 0.45 2.69 1.34 3.62 0.9 0.94 2.09 1.41 3.54 1.41 1.41 0 2.55-0.37 3.36-1.11 0.83-0.75 1.23-1.78 1.21-3.09l-0.09-0.31h-2.7v0.27c0 0.67-0.14 1.17-0.44 1.48-0.29 0.3-0.74 0.46-1.35 0.46-0.64 0-1.13-0.24-1.48-0.73-0.37-0.51-0.56-1.18-0.56-2v-2.3c0-0.82 0.18-1.49 0.53-2 0.34-0.48 0.79-0.72 1.39-0.72 0.66 0 1.15 0.16 1.45 0.46 0.3 0.31 0.46 0.79 0.46 1.46v0.27h2.51l0.21-0.05 0.06-0.18 0.02-0.08c0.02-1.32-0.4-2.36-1.25-3.1-0.82-0.73-1.99-1.09-3.45-1.09" fill="#256A9F"/>
	<polygon points="349.32 41.48 345.18 41.48 345.18 36.54 342.33 36.54 342.33 48.58 345.18 48.58 345.18 43.8 349.32 43.8 349.32 48.58 352.16 48.58 352.16 36.54 349.32 36.54" fill="#256A9F"/>
	<path d="m363.99 41.35c-0.8-0.27-1.36-0.52-1.67-0.75-0.27-0.2-0.4-0.44-0.4-0.74 0-0.35 0.12-0.63 0.38-0.85 0.26-0.23 0.64-0.34 1.14-0.34 0.56 0 0.99 0.13 1.28 0.39s0.43 0.63 0.43 1.12v0.27h2.5l0.21-0.05 0.06-0.18 0.01-0.08c0.03-1.12-0.38-2.04-1.22-2.74-0.82-0.68-1.92-1.03-3.25-1.03-1.25 0-2.3 0.32-3.12 0.95-0.84 0.65-1.27 1.5-1.27 2.52s0.38 1.84 1.13 2.43c0.71 0.56 1.76 1.05 3.11 1.46 0.73 0.22 1.25 0.46 1.53 0.7 0.25 0.22 0.37 0.5 0.37 0.86 0 0.35-0.13 0.62-0.38 0.82-0.27 0.22-0.69 0.33-1.24 0.33-0.62 0-1.11-0.14-1.46-0.42-0.33-0.27-0.5-0.69-0.5-1.29v-0.27h-2.5l-0.21 0.05-0.06 0.18-0.02 0.08c-0.03 1.31 0.45 2.31 1.41 2.98 0.93 0.65 2.05 0.97 3.34 0.97 1.32 0 2.4-0.3 3.21-0.9 0.84-0.62 1.26-1.48 1.26-2.55 0-1.02-0.37-1.86-1.09-2.48-0.69-0.58-1.7-1.07-2.98-1.44" fill="#256A9F"/>
	<polygon points="369.13 38.86 372.37 38.86 372.37 48.58 375.21 48.58 375.21 38.86 378.49 38.86 378.49 36.54 369.13 36.54" fill="#256A9F"/>
	<path d="m384.47 36.38c-1.48 0-2.71 0.49-3.64 1.47-0.93 0.97-1.4 2.21-1.4 3.68v2.07c0 1.48 0.47 2.71 1.4 3.68s2.16 1.46 3.65 1.46c1.5 0 2.73-0.49 3.67-1.46s1.41-2.21 1.41-3.69v-2.07c0-1.47-0.48-2.71-1.42-3.68s-2.18-1.46-3.67-1.46m2.25 7.21c0 0.85-0.2 1.54-0.61 2.06-0.39 0.51-0.93 0.75-1.63 0.75s-1.23-0.25-1.62-0.75c-0.4-0.52-0.6-1.22-0.6-2.06v-2.08c0-0.83 0.2-1.52 0.6-2.04 0.38-0.51 0.91-0.75 1.61-0.75 0.71 0 1.25 0.25 1.64 0.76 0.41 0.52 0.61 1.21 0.61 2.04v2.07z" fill="#256A9F"/>
	<path d="m400.47 47.3c-0.08-0.33-0.12-0.65-0.12-0.94v-0.85c0-0.74-0.17-1.37-0.49-1.88-0.24-0.38-0.59-0.68-1.04-0.9 0.38-0.23 0.7-0.52 0.93-0.84 0.35-0.47 0.52-1.04 0.52-1.68 0-1.15-0.41-2.06-1.21-2.71-0.79-0.63-1.88-0.96-3.25-0.96h-4.25v12.03h2.84v-4.59h1.56c0.5 0 0.88 0.13 1.14 0.4s0.39 0.64 0.39 1.15v0.81c0 0.38 0.03 0.77 0.09 1.17 0.07 0.46 0.24 0.8 0.5 1.01l0.07 0.06h2.74v-0.56l-0.1-0.08c-0.13-0.14-0.25-0.35-0.32-0.64m-3.42-5.98c-0.26 0.23-0.69 0.35-1.27 0.35h-1.36v-2.81h1.4c0.54 0 0.95 0.13 1.21 0.39 0.27 0.26 0.4 0.61 0.4 1.06 0 0.46-0.12 0.79-0.38 1.01" fill="#256A9F"/>
	<polygon points="405.45 46.27 405.45 43.52 409.71 43.52 409.71 41.21 405.45 41.21 405.45 38.86 410.5 38.86 410.5 36.54 402.6 36.54 402.6 48.58 410.52 48.58 410.52 46.27" fill="#256A9F"/>
</svg>
